<svg xmlns="http://www.w3.org/2000/svg" viewBox="0 0 1200 675" role="img" aria-labelledby="title desc">
  <title id="title">Ilustración de reserva de Lumina</title>
  <desc id="desc">Paisaje del santuario con estanterías y luz cálida para usar cuando falle una imagen.</desc>
  <defs>
    <linearGradient id="bg" x1="0%" x2="100%" y1="0%" y2="100%">
      <stop offset="0%" stop-color="#201a18" />
      <stop offset="100%" stop-color="#130d0b" />
    </linearGradient>
    <linearGradient id="glow" x1="0%" x2="0%" y1="0%" y2="100%">
      <stop offset="0%" stop-color="#ffb961" stop-opacity="0.75" />
      <stop offset="100%" stop-color="#ffb961" stop-opacity="0" />
    </linearGradient>
  </defs>
  <rect width="1200" height="675" fill="url(#bg)" />
  <circle cx="900" cy="160" r="140" fill="#add0a8" fill-opacity="0.12" />
  <circle cx="280" cy="140" r="180" fill="#e7bdb1" fill-opacity="0.08" />
  <rect x="110" y="160" width="160" height="340" fill="#2f2826" />
  <rect x="310" y="120" width="180" height="380" fill="#2f2826" />
  <rect x="540" y="190" width="150" height="310" fill="#2f2826" />
  <rect x="740" y="145" width="170" height="355" fill="#2f2826" />
  <rect x="960" y="185" width="130" height="315" fill="#2f2826" />
  <rect x="140" y="188" width="100" height="18" fill="#3b3331" />
  <rect x="140" y="236" width="100" height="18" fill="#3b3331" />
  <rect x="140" y="284" width="100" height="18" fill="#3b3331" />
  <rect x="340" y="150" width="120" height="18" fill="#3b3331" />
  <rect x="340" y="198" width="120" height="18" fill="#3b3331" />
  <rect x="340" y="246" width="120" height="18" fill="#3b3331" />
  <rect x="570" y="220" width="90" height="18" fill="#3b3331" />
  <rect x="570" y="268" width="90" height="18" fill="#3b3331" />
  <rect x="570" y="316" width="90" height="18" fill="#3b3331" />
  <rect x="774" y="175" width="102" height="18" fill="#3b3331" />
  <rect x="774" y="223" width="102" height="18" fill="#3b3331" />
  <rect x="774" y="271" width="102" height="18" fill="#3b3331" />
  <rect x="980" y="215" width="90" height="18" fill="#3b3331" />
  <rect x="980" y="263" width="90" height="18" fill="#3b3331" />
  <rect x="980" y="311" width="90" height="18" fill="#3b3331" />
  <rect x="520" y="420" width="160" height="110" fill="#251e1c" stroke="#434841" stroke-width="6" />
  <rect x="555" y="355" width="90" height="120" fill="url(#glow)" />
  <rect x="0" y="560" width="1200" height="115" fill="#181210" />
  <text x="68" y="596" fill="#ffcf93" font-family="Space Grotesk, sans-serif" font-size="30" font-weight="700" letter-spacing="10">LUMINA</text>
  <text x="68" y="638" fill="#c3c8be" font-family="Manrope, sans-serif" font-size="20">Recurso local de respaldo para mantener el santuario legible.</text>
</svg>
